<svg xmlns="http://www.w3.org/2000/svg" width="19.438" height="19.438" viewBox="0 0 19.438 19.438"><defs><style>.a{fill:#1e1d54;}</style></defs><path class="a" d="M14.176,0H5.262A5.268,5.268,0,0,0,0,5.262v8.915a5.268,5.268,0,0,0,5.262,5.262h8.915a5.268,5.268,0,0,0,5.262-5.262V5.262A5.268,5.268,0,0,0,14.176,0ZM18.3,14.177A4.127,4.127,0,0,1,14.176,18.3H5.262A4.127,4.127,0,0,1,1.14,14.177V5.262A4.127,4.127,0,0,1,5.262,1.14h8.915A4.127,4.127,0,0,1,18.3,5.262Zm0,0"/><path class="a" d="M121.319,116a5.315,5.315,0,1,0,5.315,5.315A5.321,5.321,0,0,0,121.319,116Zm0,9.49a4.175,4.175,0,1,1,4.175-4.175A4.18,4.18,0,0,1,121.319,125.494Zm0,0" transform="translate(-111.6 -111.6)"/><path class="a" d="M359.547,66.285a1.571,1.571,0,1,0,1.571,1.571A1.572,1.572,0,0,0,359.547,66.285Zm0,2a.431.431,0,1,1,.431-.431A.432.432,0,0,1,359.547,68.287Zm0,0" transform="translate(-344.386 -63.769)"/></svg>