<svg xmlns="http://www.w3.org/2000/svg" width="41.135" height="41.135" viewBox="0 0 41.135 41.135"><defs><style>.a{fill:#1e1d54;}</style></defs><path class="a" d="M20.568,0A20.557,20.557,0,0,0,4.713,33.654c.008.01.008.023.016.033a20.562,20.562,0,0,0,7.766,5.8l.1.045c.241.1.484.2.728.287.1.036.192.073.289.108q.316.113.636.215c.136.044.273.087.411.128q.283.084.568.162c.167.045.336.087.5.128s.342.082.514.119c.192.041.386.077.581.113.156.029.312.059.47.084.216.035.433.062.651.09.141.018.28.038.422.053.247.026.5.045.745.062.116.008.231.021.348.027q.546.031,1.1.032c.371,0,.739-.011,1.1-.03.117-.006.232-.019.348-.027.25-.018.5-.036.745-.062.141-.015.281-.036.422-.053.218-.028.435-.056.651-.09.157-.025.313-.056.47-.084.194-.036.388-.072.581-.113.172-.037.343-.077.514-.119s.337-.083.5-.128c.191-.051.38-.106.568-.162.138-.041.274-.084.411-.128q.32-.1.636-.215c.1-.035.193-.072.289-.108.245-.092.487-.186.728-.287l.1-.045a20.567,20.567,0,0,0,7.766-5.8c.008-.01.009-.023.016-.033A20.559,20.559,0,0,0,20.568,0ZM28.9,37.858l-.03.015c-.245.118-.494.229-.745.337l-.17.073q-.329.138-.665.263c-.093.035-.186.069-.28.1-.2.071-.4.138-.6.2-.125.04-.25.077-.376.114-.178.053-.357.1-.538.153-.152.04-.306.077-.459.114s-.322.077-.484.112c-.178.038-.357.07-.535.1-.145.027-.289.055-.435.078-.2.032-.4.057-.606.082-.128.016-.256.036-.385.049-.231.025-.464.04-.7.057-.1.007-.206.019-.311.024q-.509.027-1.021.027t-1.02-.027c-.1-.005-.207-.016-.311-.024-.233-.016-.466-.032-.7-.057-.13-.014-.257-.033-.385-.049-.2-.025-.405-.051-.606-.082-.146-.023-.29-.051-.435-.078-.179-.032-.358-.065-.535-.1s-.324-.073-.484-.112-.307-.073-.459-.114c-.18-.048-.36-.1-.538-.153-.125-.037-.251-.075-.376-.114q-.3-.1-.6-.2l-.28-.1q-.335-.125-.665-.263l-.169-.072c-.251-.108-.5-.219-.745-.337l-.03-.015a19.289,19.289,0,0,1-6.22-4.795,15.132,15.132,0,0,1,9.9-10.379c.1.058.195.11.293.165.058.032.114.067.173.1.2.108.411.21.623.3.162.071.33.132.5.193l.1.036a8.75,8.75,0,0,0,5.93,0l.1-.036c.167-.062.335-.122.5-.193.212-.091.419-.193.623-.3.058-.032.115-.065.173-.1.1-.055.2-.107.294-.166a15.136,15.136,0,0,1,9.9,10.379A19.309,19.309,0,0,1,28.9,37.858ZM13.026,15.083A7.541,7.541,0,1,1,24.67,21.4a7.262,7.262,0,0,1-.84.47l-.1.049a7.714,7.714,0,0,1-6.321,0l-.1-.049a7.206,7.206,0,0,1-.84-.47A7.537,7.537,0,0,1,13.026,15.083ZM36.15,31.758A16.519,16.519,0,0,0,26.52,21.7a8.913,8.913,0,1,0-11.9,0,16.521,16.521,0,0,0-9.63,10.06A19.191,19.191,0,1,1,39.764,20.568,19.088,19.088,0,0,1,36.15,31.758Z"/></svg>